<svg width="149" height="48" viewBox="0 0 149 48" fill="none" xmlns="http://www.w3.org/2000/svg">
<path d="M9.19768 0.100006C10.0206 0.100006 10.7719 0.422006 11.4517 1.06601C12.1672 1.71001 12.525 2.47923 12.525 3.37367C12.525 4.23234 12.1672 4.98368 11.4517 5.62768C10.7361 6.2359 9.93112 6.54001 9.03668 6.54001C8.28535 6.54001 7.56979 6.2359 6.89001 5.62768C6.24601 4.98368 5.92401 4.19656 5.92401 3.26634C5.92401 2.40767 6.24601 1.67423 6.89001 1.06601C7.56979 0.422006 8.33901 0.100006 9.19768 0.100006Z" fill="black"/>
<path d="M56.477 15.654C55.6411 15.654 54.9127 15.7973 54.2918 16.0839C53.6948 16.3705 53.2052 16.7645 52.8232 17.266C52.4411 17.7675 52.1545 18.3645 51.9634 19.0571C51.7963 19.7496 51.7127 20.5019 51.7127 21.3139C51.7127 22.1019 51.7843 22.8542 51.9276 23.5706C52.0948 24.2632 52.3575 24.8721 52.7157 25.3975C53.0739 25.9229 53.5515 26.3408 54.1486 26.6513C54.7456 26.9617 55.4739 27.117 56.3337 27.117C57.0023 27.117 57.6471 27.0334 58.268 26.8662C58.8889 26.6752 59.4382 26.3647 59.9158 25.9348C60.4173 25.505 60.8114 24.9318 61.0979 24.2154C61.4084 23.499 61.5636 22.6034 61.5636 21.5288C61.5636 20.4303 61.4084 19.5108 61.0979 18.7705C60.8114 18.0063 60.4173 17.3974 59.9158 16.9436C59.4382 16.466 58.8889 16.1317 58.268 15.9406C57.671 15.7496 57.074 15.654 56.477 15.654Z" fill="black"/>
<path fill-rule="evenodd" clip-rule="evenodd" d="M0.7168 18.1995C1.30594 12.0577 6.82981 7.59371 12.9732 8.16629C22.9538 9.09652 37.3739 10.1521 46.5681 9.55244C53.7002 9.0873 59.8496 6.81225 65.2618 4.80993C71.4025 2.53811 76.5942 0.617368 81.1956 2.08956C89.8525 4.8593 93.7332 16.7167 90.151 24.7766C86.5688 32.8364 73.1357 40.8963 51.6428 40.8963C38.0967 40.8963 21.112 34.8489 10.4038 30.3769C10.457 30.3371 10.5075 30.2893 10.5554 30.2334C10.6986 30.0663 10.818 29.8274 10.9136 29.517C11.0091 29.2065 11.0688 28.7647 11.0927 28.1916C11.1136 27.7216 11.1322 27.452 11.1485 27.2155C11.1695 26.9113 11.1867 26.6618 11.2001 26.1109C11.2122 25.6155 11.2243 25.3792 11.2364 25.1428C11.2482 24.9121 11.26 24.6813 11.2718 24.2094C11.279 23.9225 11.2851 23.7248 11.2901 23.5619C11.3018 23.1826 11.3076 22.9929 11.3076 22.3078V18.863C11.3076 18.1465 11.2957 17.4659 11.2718 16.8211L11.2001 14.8151C11.1763 14.1465 11.1404 13.3823 11.0927 12.5225C11.0688 12.0449 10.9972 11.6628 10.8777 11.3763C10.7822 11.0658 10.6628 10.8389 10.5195 10.6956C10.3762 10.5285 10.2091 10.421 10.018 10.3732C9.82698 10.3255 9.62399 10.3016 9.40906 10.3016C8.9792 10.3016 8.63293 10.4807 8.37023 10.8389C8.13142 11.1971 7.95232 11.7583 7.83291 12.5225C7.71351 13.2867 7.64186 14.2778 7.61798 15.4957C7.5941 16.6898 7.58216 18.1346 7.58216 19.8301V22.0571C7.58216 23.0356 7.58957 23.3413 7.6044 23.9528C7.60839 24.1172 7.61292 24.304 7.61798 24.5318C7.62557 24.873 7.63194 25.1062 7.63712 25.2954C7.64824 25.7019 7.6538 25.9052 7.6538 26.5408C7.66769 27.0825 7.68562 27.2738 7.70759 27.5082C7.72339 27.6768 7.74128 27.8677 7.76127 28.2274C7.78194 28.6512 7.82722 29.0124 7.8971 29.3109C7.51851 29.1469 7.15091 28.9864 6.79487 28.8298C2.65138 27.007 0.284569 22.7055 0.7168 18.1995ZM71.3107 22.7825C71.3346 24.8363 71.3824 26.6154 71.454 28.12C71.5018 29.0991 71.6689 29.7439 71.9555 30.0543C72.266 30.3409 72.6361 30.4842 73.066 30.4842C73.3048 30.4842 73.5078 30.4722 73.675 30.4484C73.866 30.4006 74.0332 30.2931 74.1765 30.126C74.3197 29.9588 74.4272 29.72 74.4989 29.4095C74.5944 29.0991 74.6541 28.6573 74.678 28.0841C74.7257 27.0095 74.7616 25.9945 74.7854 25.0393L74.8571 22.1736C74.881 21.1944 74.8929 20.1795 74.8929 19.1287V15.654C75.1556 15.7018 75.4422 15.7257 75.7526 15.7257H76.5765C77.0064 15.7257 77.4004 15.7137 77.7586 15.6899C78.1407 15.6421 78.4631 15.5585 78.7258 15.4391C79.0124 15.3197 79.2392 15.1525 79.4064 14.9376C79.5736 14.6988 79.6572 14.3883 79.6572 14.0063C79.6572 13.3853 79.4184 12.9435 78.9407 12.6809C78.4631 12.3943 77.7825 12.251 76.8989 12.251C76.5646 12.251 76.2183 12.2629 75.8601 12.2868C75.5019 12.2868 75.1556 12.3346 74.8213 12.4301V11.7137C74.8451 11.4271 74.8571 11.1166 74.8571 10.7823C74.8571 10.3047 74.8332 9.81513 74.7854 9.31362C74.7616 8.81212 74.678 8.35838 74.5347 7.9524C74.4153 7.54642 74.2362 7.21209 73.9974 6.9494C73.7585 6.68671 73.4481 6.55536 73.066 6.55536C72.7078 6.55536 72.4093 6.627 72.1705 6.77029C71.9555 6.8897 71.7764 7.16433 71.6331 7.59419C71.5137 8.00016 71.4301 8.58525 71.3824 9.34944C71.3346 10.1136 71.3107 11.1286 71.3107 12.3943C71.048 12.3465 70.7256 12.3226 70.3436 12.3226H69.3764C67.6569 12.3226 66.7972 12.8958 66.7972 14.0421C66.7972 14.4481 66.8689 14.7704 67.0121 15.0093C67.1554 15.2242 67.3584 15.3914 67.6211 15.5108C67.8838 15.6302 68.1823 15.7018 68.5166 15.7257C68.8749 15.7496 69.2689 15.7615 69.6988 15.7615H70.451C70.7853 15.7615 71.0719 15.7496 71.3107 15.7257V22.7825ZM39.8625 28.0125C39.9102 28.514 40.0057 28.9677 40.149 29.3737C40.2923 29.7558 40.4714 30.0304 40.6864 30.1976C40.9013 30.3409 41.2117 30.4125 41.6177 30.4125C42.0476 30.4125 42.37 30.3409 42.5849 30.1976C42.8237 30.0304 43.0028 29.8155 43.1222 29.5528C43.2416 29.2901 43.3133 28.9677 43.3371 28.5856C43.3849 28.2035 43.4088 27.7856 43.4088 27.3319V25.505C43.4327 24.8124 43.4446 23.9766 43.4446 22.9975V21.7437C43.4446 21.3855 43.4327 21.0392 43.4088 20.7049C43.4088 20.3706 43.3968 20.0362 43.373 19.7019C43.373 19.3437 43.361 18.9377 43.3371 18.4839C43.2655 17.0511 43.0267 15.9167 42.6207 15.0809C42.2386 14.2212 41.761 13.5645 41.1879 13.1107C40.6147 12.657 39.9819 12.3704 39.2893 12.251C38.6206 12.1077 37.9639 12.0361 37.3191 12.0361C35.9579 12.0361 34.8116 12.2271 33.8802 12.6092C32.9489 12.9913 32.1847 13.4928 31.5877 14.1137C31.0145 14.7107 30.5727 15.4033 30.2623 16.1914C29.9757 16.9556 29.7846 17.7317 29.6891 18.5198C29.5936 17.7078 29.4025 16.9078 29.116 16.1197C28.8533 15.3316 28.4354 14.6272 27.8622 14.0063C27.313 13.3853 26.5965 12.8838 25.7129 12.5017C24.8293 12.1196 23.7427 11.9286 22.4532 11.9286C21.8561 11.9286 21.1994 12.0002 20.483 12.1435C19.7665 12.2629 19.0979 12.5495 18.477 13.0032C17.8561 13.457 17.3187 14.1257 16.865 15.0093C16.4112 15.869 16.1486 17.0272 16.0769 18.4839C16.053 18.9377 16.0292 19.3437 16.0053 19.7019C16.0053 20.0362 15.9933 20.3706 15.9694 20.7049V25.505C15.9933 26.1737 16.0053 26.7826 16.0053 27.3319C16.0292 28.3349 16.1486 29.0991 16.3635 29.6245C16.5784 30.1498 17.056 30.4125 17.7964 30.4125C18.0352 30.4125 18.2979 30.3648 18.5844 30.2693C18.871 30.1498 19.0979 29.8513 19.265 29.3737C19.4083 28.9677 19.4919 28.4782 19.5158 27.905C19.5635 27.3319 19.5874 26.6513 19.5874 25.8632C19.5874 25.3139 19.5755 24.908 19.5516 24.6453V24.0005C19.5516 23.8333 19.5397 23.6542 19.5158 23.4632V22.496C19.5158 21.6362 19.5277 20.7885 19.5516 19.9526C19.5994 19.0929 19.7307 18.3287 19.9456 17.6601C20.1606 16.9675 20.4949 16.4182 20.9487 16.0123C21.4263 15.5824 22.0949 15.3675 22.9547 15.3675C23.8621 15.3675 24.6025 15.6063 25.1756 16.0839C25.7726 16.5615 26.2383 17.2063 26.5726 18.0183C26.9309 18.8063 27.1816 19.7258 27.3249 20.7765C27.4921 21.8273 27.6115 22.9258 27.6831 24.0721C27.7548 25.1229 27.7906 26.0423 27.7906 26.8304C27.8145 27.6185 27.8742 28.2871 27.9697 28.8364C28.0891 29.3857 28.2682 29.8036 28.507 30.0901C28.7458 30.3528 29.1279 30.4842 29.6533 30.4842C30.2264 30.4842 30.6324 30.329 30.8712 30.0185C31.1339 29.708 31.313 29.2782 31.4086 28.7289C31.5041 28.1558 31.5518 27.4752 31.5518 26.6871C31.5518 25.899 31.5757 25.0274 31.6235 24.0721C31.7907 21.0392 32.2802 18.8302 33.0922 17.4451C33.9041 16.06 35.0385 15.3675 36.4952 15.3675C37.3549 15.3675 38.0117 15.5824 38.4654 16.0123C38.9192 16.4421 39.2535 17.0033 39.4684 17.6959C39.6833 18.3645 39.8027 19.1287 39.8266 19.9885C39.8744 20.8243 39.8983 21.6601 39.8983 22.496C39.8983 22.9019 39.8863 23.2243 39.8625 23.4632V24.1438C39.8625 24.3587 39.8505 24.6214 39.8266 24.9318V26.1498C39.8266 26.8901 39.8386 27.511 39.8625 28.0125ZM51.5336 35.6067C51.5336 36.0604 51.5216 36.4903 51.4978 36.8962C51.4739 37.3261 51.3903 37.7082 51.247 38.0425C51.1276 38.3769 50.9366 38.6396 50.6739 38.8306C50.435 39.0455 50.0888 39.153 49.635 39.153C49.1096 39.153 48.6679 38.962 48.3096 38.5799C47.9753 38.2216 47.7843 37.5769 47.7365 36.6455C47.7126 36.0485 47.6768 35.3201 47.629 34.4604C47.5813 33.6007 47.5335 32.6932 47.4857 31.7379C47.4619 30.7827 47.426 29.8275 47.3783 28.8722C47.3544 27.917 47.3424 27.0334 47.3424 26.2214C47.3424 23.4273 47.5335 21.1228 47.9156 19.3078C48.3216 17.4929 48.9186 16.0481 49.7067 14.9734C50.4948 13.8988 51.4619 13.1465 52.6082 12.7167C53.7784 12.2868 55.1277 12.0719 56.6561 12.0719C57.874 12.0719 59.0203 12.2629 60.0949 12.645C61.1696 13.0032 62.1009 13.5764 62.889 14.3645C63.701 15.1287 64.3458 16.1317 64.8234 17.3735C65.301 18.5914 65.5398 20.0601 65.5398 21.7795C65.5398 23.2124 65.2891 24.4781 64.7876 25.5766C64.3099 26.6752 63.6413 27.6065 62.7816 28.3707C61.9218 29.111 60.9069 29.6842 59.7367 30.0901C58.5904 30.4722 57.3606 30.6633 56.0471 30.6633C54.9247 30.6633 53.9097 30.4364 53.0023 29.9827C52.1187 29.5051 51.4858 28.9916 51.1037 28.4424C51.2231 29.7797 51.3186 31.0215 51.3903 32.1678C51.4858 33.3141 51.5336 34.4604 51.5336 35.6067ZM83.3275 26.508C83.8767 26.508 84.3782 26.7229 84.832 27.1528C85.3096 27.5826 85.5484 28.0961 85.5484 28.6931C85.5484 29.2662 85.3096 29.7678 84.832 30.1976C84.3544 30.6036 83.817 30.8066 83.22 30.8066C82.7185 30.8066 82.2409 30.6036 81.7871 30.1976C81.3573 29.7678 81.1424 29.2424 81.1424 28.6215C81.1424 28.0483 81.3573 27.5588 81.7871 27.1528C82.2409 26.7229 82.7543 26.508 83.3275 26.508Z" fill="black"/>
<path fill-rule="evenodd" clip-rule="evenodd" d="M102.52 6.92104C102.827 6.84614 103.13 6.81609 103.424 6.84548C103.647 6.86771 103.896 6.90685 104.089 7.0035L104.122 7.02012L104.153 7.04074C104.37 7.18501 104.446 7.40843 104.475 7.51078C104.512 7.63955 104.531 7.78219 104.54 7.92133C104.559 8.20175 104.549 8.5699 104.516 9.01139C104.469 9.94017 104.251 11.1031 103.877 12.4872C103.548 13.806 103.173 15.0716 102.755 16.2836C102.36 17.4693 101.942 18.5911 101.501 19.6488C101.083 20.6825 100.653 21.6322 100.21 22.4969C99.8153 23.3059 99.4598 24.018 99.143 24.6327C98.9442 26.1179 98.9569 27.2664 99.1476 28.1052C99.245 28.534 99.3744 28.7843 99.4938 28.919C99.5945 29.0326 99.6966 29.0771 99.8387 29.0771C100.163 29.0771 100.534 28.9326 100.961 28.5244C101.413 28.0919 101.824 27.553 102.192 26.9C102.564 26.2377 102.875 25.5325 103.125 24.7837L103.127 24.7792L103.128 24.7746C103.33 24.1989 103.471 23.6806 103.554 23.2178C103.262 23.0881 102.997 22.9167 102.764 22.7013L102.755 22.6932L102.747 22.6848C102.336 22.2736 102.148 21.7435 102.148 21.1525C102.148 20.7299 102.269 20.3355 102.503 19.9818C102.708 19.6501 102.956 19.3621 103.248 19.1232C103.536 18.8879 103.852 18.7031 104.195 18.571C104.529 18.4425 104.864 18.3679 105.193 18.3679C105.874 18.3679 106.35 18.8245 106.661 19.3921C106.895 19.8029 107.061 20.2836 107.168 20.8232C107.834 20.7728 108.532 20.6575 109.26 20.4753C109.901 20.3152 110.515 20.1253 111.102 19.9059C111.598 17.8493 111.981 16.25 112.252 15.1075C112.596 13.6006 112.834 12.5534 112.965 11.9645C113.028 11.5658 113.08 11.1783 113.122 10.8019L113.122 10.7937C113.163 10.4713 113.183 10.1369 113.183 9.79033C113.183 9.45478 113.154 9.1601 113.099 8.90328L113.011 8.49384L113.366 8.27191C113.58 8.13793 113.808 8.03074 114.049 7.9506L114.057 7.94774L114.066 7.94514C114.291 7.87772 114.507 7.82054 114.714 7.77403C114.965 7.70594 115.217 7.64893 115.469 7.60309C115.736 7.55462 115.99 7.52816 116.229 7.52816C116.441 7.52816 116.647 7.55318 116.847 7.6066C117.085 7.64986 117.343 7.77253 117.5 8.02962C117.764 8.32977 117.792 8.74448 117.773 9.05851C117.772 9.40548 117.748 9.76126 117.703 10.1256L117.7 10.1502L117.695 10.1745C117.607 10.5917 117.508 11.041 117.399 11.5225L117.396 11.5367L117.392 11.5507C117.132 12.4813 116.774 13.8266 116.317 15.5886C115.925 17.0899 115.392 19.136 114.718 21.7251C114.065 24.3155 113.238 27.5801 112.237 31.519L112.196 31.678L112.08 31.7941C111.897 31.9768 111.677 32.104 111.43 32.1745C111.235 32.2302 111.038 32.2628 110.842 32.2628C110.661 32.2628 110.473 32.2499 110.278 32.2255L110.232 32.2198L110.188 32.2072C109.985 32.1491 109.788 32.0639 109.599 31.9556L109.581 31.9454L109.564 31.934C109.382 31.8131 109.217 31.6588 109.063 31.4825C108.849 31.2601 108.715 30.9786 108.633 30.6801L108.593 30.5331L108.628 30.3849C109.334 27.4172 109.934 24.8816 110.426 22.7778C110.164 22.8702 109.901 22.9549 109.638 23.0316C109.098 23.1891 108.577 23.3139 108.075 23.405C107.766 23.4613 107.47 23.5011 107.187 23.5237C107.05 24.3205 106.782 25.1574 106.391 26.0323L106.389 26.0367C105.915 27.0765 105.338 28.0495 104.659 28.9549L104.654 28.9607C103.969 29.8521 103.198 30.602 102.34 31.2052C101.483 31.8233 100.592 32.1648 99.6755 32.1648C99.3888 32.1648 99.0366 32.1264 98.6305 32.0588C98.0713 31.9656 97.5798 31.6473 97.1518 31.1941C96.6908 30.706 96.3412 29.9852 96.0684 29.0987L96.0672 29.0947C95.7791 28.1344 95.6717 26.831 95.7157 25.2195C95.7383 24.1177 95.8619 22.9547 96.0843 21.7313C96.3045 20.5204 96.5686 19.3097 96.8767 18.0994C97.1848 16.889 97.5262 15.7215 97.901 14.597L97.9032 14.5905C98.2966 13.454 98.6691 12.4351 99.0205 11.5345C99.3714 10.6135 99.6922 9.83844 99.9829 9.21242L99.9865 9.20457L99.9904 9.19684C100.286 8.60491 100.544 8.14656 100.754 7.90329C101 7.60427 101.298 7.37246 101.646 7.22326C101.936 7.08 102.228 6.97636 102.52 6.92104Z" fill="black"/>
<path fill-rule="evenodd" clip-rule="evenodd" d="M129.728 24.9563C129.505 25.1005 129.277 25.2435 129.043 25.3852C128.402 25.7737 127.778 26.0843 127.17 26.3127C126.952 27.0654 126.671 27.7767 126.326 28.4456C125.931 29.2117 125.451 29.882 124.883 30.451C124.333 31.0245 123.695 31.4703 122.975 31.7843C122.259 32.1278 121.476 32.2954 120.637 32.2954C119.663 32.2954 118.816 32.082 118.158 31.5897C117.577 31.1601 117.133 30.6134 116.83 29.957L116.826 29.9482L116.822 29.9394C116.555 29.3087 116.4 28.6251 116.352 27.8939C116.286 27.2063 116.252 26.5588 116.252 25.952C116.252 25.4907 116.312 24.9944 116.427 24.4661C116.519 23.9378 116.657 23.4015 116.838 22.8574C117.022 22.3066 117.25 21.7581 117.523 21.212L117.528 21.2032L117.532 21.1946C117.817 20.6696 118.144 20.1836 118.513 19.7377C118.67 19.3354 118.894 18.9741 119.186 18.658L119.194 18.6492L119.202 18.6407C119.528 18.3154 119.893 18.0496 120.298 17.8464C120.712 17.6282 121.149 17.4699 121.609 17.3717C122.063 17.2534 122.512 17.1925 122.955 17.1925C123.068 17.1925 123.202 17.209 123.335 17.2653L123.439 17.2998C123.802 17.3414 124.197 17.4772 124.609 17.672C125.116 17.9009 125.584 18.2371 126.016 18.6678C126.49 19.1181 126.877 19.6809 127.184 20.3424C127.515 21.0306 127.666 21.8415 127.666 22.7523C127.666 22.8514 127.663 22.9603 127.657 23.0785C127.855 22.9849 128.057 22.8847 128.263 22.7777C128.794 22.5012 129.304 22.2145 129.792 21.9177C130.282 21.6114 130.73 21.3067 131.137 21.0037C131.229 20.8378 131.326 20.6738 131.426 20.5117C132.029 19.5378 132.774 18.7101 133.661 18.0332C134.59 17.3241 135.642 16.964 136.798 16.964C137.381 16.964 137.917 17.1115 138.377 17.4282C138.791 17.7125 139.138 18.0728 139.417 18.5029C139.55 18.6972 139.668 18.9001 139.772 19.1114C139.914 18.8153 140.075 18.566 140.262 18.3795C140.692 17.9491 141.28 17.7802 141.924 17.7802C142.291 17.7802 142.645 17.8443 142.953 18.012C143.08 18.0758 143.211 18.154 143.32 18.2518C143.418 18.3401 143.599 18.536 143.599 18.8344V18.9637L143.545 19.0814C143.436 19.3232 143.345 19.516 143.275 19.6564C143.215 19.7753 143.155 19.906 143.094 20.049L143.087 20.0652L143.079 20.0808C143.035 20.1688 142.981 20.307 142.921 20.5078C142.858 20.7156 142.773 21.0234 142.665 21.435L142.663 21.4411L142.662 21.4471C142.624 21.5809 142.541 21.9207 142.41 22.4862C142.299 23.0406 142.145 23.6992 141.95 24.4603C141.776 25.2203 141.581 26.0553 141.364 26.9653C141.273 27.3917 141.181 27.8134 141.09 28.2305C141.298 28.0838 141.51 27.9282 141.724 27.7637C142.367 27.2715 142.976 26.7691 143.552 26.2568C144.131 25.7424 144.643 25.2624 145.089 24.8165C145.532 24.3516 145.844 23.9874 146.037 23.7184C146.252 23.3991 146.518 23.1347 146.849 22.9693C147.119 22.8342 147.45 22.7379 147.79 22.8195C147.961 22.8481 148.145 22.921 148.297 23.073C148.45 23.2258 148.523 23.4111 148.551 23.5828C148.598 23.7895 148.568 23.9875 148.52 24.1483C148.467 24.3239 148.38 24.4978 148.277 24.6651L148.276 24.6674C147.752 25.5098 147.118 26.3247 146.375 27.1125L146.372 27.1157L146.369 27.1188C145.638 27.8716 144.885 28.5807 144.109 29.2459L144.108 29.2468C143.354 29.8893 142.61 30.4673 141.874 30.9802L141.871 30.9823C141.266 31.3985 140.73 31.7521 140.265 32.0418C140.07 32.912 139.902 33.6298 139.761 34.194C139.61 34.7976 139.481 35.3457 139.374 35.8384C139.265 36.3623 139.124 37.0147 138.95 37.7952C138.796 38.5859 138.61 39.4185 138.391 40.2928C138.192 41.1777 137.949 42.0516 137.661 42.9144C137.394 43.8045 137.091 44.6037 136.75 45.3092C136.406 46.0417 136.017 46.66 135.577 47.1494C135.099 47.6802 134.512 48 133.827 48C132.978 48 132.221 47.739 131.585 47.2096C131.018 46.7408 130.547 46.145 130.168 45.4347C129.792 44.7519 129.523 44.0133 129.359 43.2218C129.178 42.4487 129.084 41.7194 129.084 41.0363C129.084 40.1349 129.162 39.3516 129.331 38.6989L129.333 38.6935C129.505 38.0535 129.799 37.4458 130.206 36.8711L130.21 36.8645L130.215 36.858C130.637 36.2961 131.188 35.7127 131.861 35.1073C132.519 34.515 133.361 33.7827 134.385 32.911C134.885 32.4756 135.365 32.0618 135.822 31.6696C136.022 31.4984 136.218 31.3332 136.41 31.174C136.395 31.1837 136.38 31.1933 136.366 31.203C136.358 31.2079 136.35 31.2128 136.343 31.2177C135.453 31.8098 134.434 32.0995 133.305 32.0995C132.157 32.0995 131.221 31.5768 130.533 30.6076L130.528 30.6004L130.523 30.593C129.863 29.6033 129.573 28.2254 129.573 26.5397C129.573 26.045 129.626 25.5167 129.728 24.9563ZM130.688 23.5641C130.438 23.7503 130.18 23.9347 129.912 24.1173C130.105 23.9859 130.293 23.8535 130.476 23.7203C130.547 23.6684 130.618 23.6163 130.688 23.5641ZM137.291 29.6931C137.265 29.7187 137.239 29.7442 137.213 29.7694C137.233 29.7501 137.253 29.7305 137.273 29.7109L137.291 29.6931ZM139.476 19.9771C139.498 20.0449 139.52 20.1121 139.541 20.1786L139.524 20.1272C139.515 20.0988 139.506 20.0703 139.497 20.0417L139.476 19.9771ZM135.563 20.4233C135.143 20.8058 134.748 21.3152 134.382 21.9646C134.038 22.5916 133.762 23.2956 133.556 24.0797L133.555 24.0835C133.349 24.8444 133.249 25.5646 133.249 26.2459C133.249 27.1079 133.373 27.7521 133.584 28.2114C133.71 28.4705 133.983 28.6853 134.676 28.6853C135.023 28.6853 135.34 28.5962 135.638 28.4137L135.644 28.41L135.65 28.4065C136.024 28.1899 136.355 27.9466 136.645 27.6774C136.945 27.3765 137.188 27.0826 137.379 26.7963C137.584 26.4888 137.733 26.2506 137.831 26.0772C137.905 25.9078 137.992 25.6745 138.093 25.3714L138.099 25.3548L138.105 25.3385C138.225 25.0394 138.312 24.7562 138.37 24.4883C138.419 24.2566 138.435 24.0658 138.428 23.9108C138.209 23.805 138.052 23.6264 137.945 23.4403L137.928 23.4107L137.915 23.3793C137.832 23.1866 137.767 22.9761 137.717 22.7513C137.669 22.5347 137.633 22.3176 137.609 22.1L137.605 22.0671V22.034C137.605 21.8592 137.596 21.7141 137.579 21.5961C137.475 20.8679 137.308 20.4326 137.137 20.2047C136.948 19.9524 136.813 19.9211 136.733 19.9211C136.364 19.9211 135.978 20.064 135.563 20.4233ZM124.104 23.7578L124.109 23.738C124.166 23.53 124.186 23.3786 124.186 23.2747V23.2434L124.189 23.2122C124.229 22.8412 124.229 22.4577 124.189 22.0608C124.15 21.6681 124.073 21.3279 123.963 21.0356L123.955 21.0153L123.949 20.9945C123.858 20.6841 123.742 20.4776 123.621 20.3438L123.6 20.3207L123.582 20.2956C123.503 20.1869 123.455 20.1823 123.412 20.1823C123.12 20.1823 122.824 20.2652 122.515 20.4539L122.511 20.4565L122.507 20.459C122.237 20.6178 121.966 20.8514 121.698 21.1742C121.672 21.2793 121.658 21.3913 121.658 21.5116C121.658 21.8347 121.678 22.182 121.72 22.5541C121.755 22.8485 121.84 23.1074 121.971 23.3377C122.081 23.5299 122.264 23.7184 122.554 23.8921C122.83 24.0254 123.255 24.1143 123.869 24.1143H124.029C124.055 23.9939 124.079 23.8818 124.1 23.778L124.104 23.7578ZM123.026 27.2673C122.086 27.2622 121.244 26.9835 120.529 26.4215L120.52 26.4142L120.511 26.4065C120.235 26.1719 119.986 25.9125 119.764 25.6292C119.698 25.9876 119.667 26.3234 119.667 26.6377C119.667 27.0067 119.687 27.376 119.728 27.7454C119.765 28.0612 119.838 28.3388 119.941 28.5824C120.037 28.7865 120.158 28.9522 120.303 29.0866C120.392 29.1527 120.531 29.2077 120.767 29.2077C121.062 29.2077 121.319 29.1444 121.551 29.0235C121.82 28.8605 122.063 28.6626 122.28 28.4283C122.508 28.1607 122.71 27.863 122.884 27.5337L122.887 27.5284L122.89 27.5231C122.937 27.4384 122.983 27.3531 123.026 27.2673ZM133.669 43.2193L133.674 43.2081C133.939 42.6183 134.223 41.783 134.523 40.6891C134.586 40.4371 134.671 40.0655 134.778 39.5708L134.782 39.5556L134.786 39.5405C134.914 39.0687 135.055 38.5196 135.206 37.8924L135.208 37.883L135.211 37.8737C135.383 37.2508 135.555 36.5726 135.727 35.8388L135.728 35.8349L135.778 35.6327C135.433 35.9568 135.095 36.2697 134.761 36.5714C134.35 36.9841 133.98 37.405 133.653 37.8339C133.338 38.2688 133.081 38.7318 132.884 39.2239C132.718 39.6877 132.629 40.2449 132.629 40.9057C132.629 41.6067 132.65 42.1691 132.69 42.5983C132.75 43.0189 132.817 43.327 132.885 43.5366C132.925 43.63 132.961 43.6936 132.989 43.7345C133.006 43.7601 133.018 43.772 133.021 43.7756L133.024 43.7772L133.032 43.7828C133.091 43.8251 133.134 43.8348 133.174 43.8348C133.232 43.8348 133.431 43.8138 133.665 43.2306L133.669 43.2193ZM135.754 34.8328C135.859 34.7152 135.962 34.604 136.062 34.4991C136.146 34.4099 136.229 34.3252 136.309 34.2451C136.135 34.4192 135.95 34.6151 135.754 34.8328Z" fill="black"/>
</svg>
